<svg width="24" height="18" viewBox="0 0 24 18" fill="none" xmlns="http://www.w3.org/2000/svg">
<path d="M17.622 0C15.709 0 15.064 1.382 11.999 1.382C8.99 1.382 8.253 0 6.376 0C1.167 0 0 10.375 0 14.348C0 16.493 0.817 18 2.469 18C5.927 18 5.395 13 9.384 13H14.614C18.603 13 18.071 18 21.529 18C23.181 18 24 16.494 24 14.349C24 10.376 22.831 0 17.622 0ZM7 10C5.343 10 4 8.657 4 7C4 5.343 5.343 4 7 4C8.657 4 10 5.343 10 7C10 8.657 8.657 10 7 10ZM17 4C17.552 4 18 4.447 18 5C18 5.553 17.552 6 17 6C16.448 6 16 5.553 16 5C16 4.447 16.448 4 17 4ZM15 8C14.448 8 14 7.553 14 7C14 6.447 14.448 6 15 6C15.552 6 16 6.447 16 7C16 7.553 15.552 8 15 8ZM17 10C16.448 10 16 9.553 16 9C16 8.447 16.448 8 17 8C17.552 8 18 8.447 18 9C18 9.553 17.552 10 17 10ZM19 8C18.448 8 18 7.553 18 7C18 6.447 18.448 6 19 6C19.552 6 20 6.447 20 7C20 7.553 19.552 8 19 8ZM8.75 7C8.75 7.965 7.965 8.75 7 8.75C6.035 8.75 5.25 7.965 5.25 7C5.25 6.035 6.035 5.25 7 5.25C7.965 5.25 8.75 6.035 8.75 7Z" fill="white"/>
</svg>
